<?xml version="1.0" encoding="utf-8"?>
<!-- Generator: Adobe Illustrator 23.0.2, SVG Export Plug-In . SVG Version: 6.00 Build 0)  -->
<svg version="1.1"
	 id="svg2" xmlns:cc="http://creativecommons.org/ns#" xmlns:dc="http://purl.org/dc/elements/1.1/" xmlns:inkscape="http://www.inkscape.org/namespaces/inkscape" xmlns:rdf="http://www.w3.org/1999/02/22-rdf-syntax-ns#" xmlns:sodipodi="http://sodipodi.sourceforge.net/DTD/sodipodi-0.dtd" xmlns:svg="http://www.w3.org/2000/svg"
	 xmlns="http://www.w3.org/2000/svg" xmlns:xlink="http://www.w3.org/1999/xlink" x="0px" y="0px" viewBox="0 0 595.3 841.9"
	 style="enable-background:new 0 0 595.3 841.9;" xml:space="preserve">
<style type="text/css">
	.st0{fill-rule:evenodd;clip-rule:evenodd;fill:#FFFD7D;}
	.st1{fill:none;stroke:#FFFD7D;stroke-width:2.5;}
	.st2{fill:none;stroke:#FFFD7D;stroke-linecap:round;}
	.st3{fill:none;stroke:#FFFD7D;stroke-linecap:square;}
	.st4{fill:none;stroke:#FFFD7D;stroke-width:0.8823;stroke-linecap:square;}
	.st5{fill:none;stroke:#FFFD7D;stroke-width:1.0381;stroke-linecap:square;}
	.st6{fill:none;stroke:#FFFD7D;stroke-width:1.2039;stroke-linecap:square;}
	.st7{fill:none;stroke:#FFFD7D;stroke-width:0.934;stroke-linecap:square;}
	.st8{fill:none;stroke:#FFFD7D;stroke-width:1.0528;}
	.st9{fill:#FFFD7D;}
	.st10{fill:none;stroke:#FFFD7D;stroke-miterlimit:10;}
</style>
<sodipodi:namedview  bordercolor="#666666" borderopacity="1.0" id="base" inkscape:current-layer="layer3" inkscape:cx="144.56648" inkscape:cy="807.05895" inkscape:document-units="px" inkscape:pageopacity="0.0" inkscape:pageshadow="2" inkscape:window-height="837" inkscape:window-maximized="1" inkscape:window-width="1440" inkscape:window-x="-8" inkscape:window-y="-8" inkscape:zoom="4" pagecolor="#ffffff" showgrid="false">
	</sodipodi:namedview>
<g id="layer3" inkscape:groupmode="layer" inkscape:label="Layer 2">
	
		<image style="overflow:visible;enable-background:new    ;" width="843" height="357" id="image4213" xlink:href="BB36ECF3.png"  transform="matrix(0.6705 0 0 0.6705 140.6041 241.7657)">
	</image>
</g>
<g id="layer1" inkscape:groupmode="layer" inkscape:label="Layer 1">
	<rect id="rect3347" x="54.7" y="156" class="st0" width="115.1" height="2.1"/>
	<path id="path4153" inkscape:connector-curvature="0" sodipodi:nodetypes="csssc" class="st0" d="M169,155.9
		c1.5-1.1,3.2-6.1,4.5-6.6c1.7-0.6,7.3,0.3,8,1.3c0.9,1.5-5.4,7.3-11.8,7.5C163.4,158.3,169,155.9,169,155.9L169,155.9z"/>
	<rect id="rect3347-0" x="56.4" y="161.1" class="st0" width="123.2" height="2.2"/>
	<path id="path4170" inkscape:connector-curvature="0" sodipodi:nodetypes="cssscc" class="st0" d="M179.5,161.1
		c1.8-0.8,5.6-4,6.2-8c0.5-3.3,10.9-0.6,9.8,0.8c-2.5,3.2-14.1,9.3-16,9.3C177.8,163.3,179.5,161.2,179.5,161.1L179.5,161.1z"/>
	<path id="path4174" inkscape:connector-curvature="0" sodipodi:nodetypes="cscsc" class="st0" d="M191.9,160.9c1.9-3,4.7-4.9,7-3.7
		c2.7,1.3,1,7.7-0.5,7.4c-0.5-0.2-0.4-1.1-2-2.3C194.8,161,191.1,162.4,191.9,160.9L191.9,160.9z"/>
	<path id="path4176" inkscape:connector-curvature="0" sodipodi:nodetypes="czzc" class="st0" d="M69.7,162.7c0,0,2,1.3,1.7,4.6
		s5-3.8,5.2-4.6S69.7,162.7,69.7,162.7L69.7,162.7z"/>
	<path id="path4176-5" inkscape:connector-curvature="0" sodipodi:nodetypes="czsssssc" class="st0" d="M68.3,162.9
		c0,0,2,1.3,1.7,4.6s-4,4.1-6.7,3.5c-1.8-0.4-4.1-3.8-1.7-4.9c1.2-0.5,2.6,1.4,3,0.1c0.4-1.3-3.1-2.2-6.9-1.2
		c-0.7,0.2-1.2-2.1,0.7-2.5C61.1,161.9,68.2,162.9,68.3,162.9z"/>
	<circle id="path4303" class="st1" cx="37.9" cy="167.4" r="19.5"/>
	<path id="path4307" inkscape:connector-curvature="0" sodipodi:nodetypes="cc" class="st2" d="M29.7,177.4c0,0,8.6-4.3,15.9,0.4"/>
	<path id="path4307-8" inkscape:connector-curvature="0" sodipodi:nodetypes="cc" class="st2" d="M28,175.9c0,0,11-5.8,19.5,0.8"/>
	<path id="path4324" inkscape:connector-curvature="0" sodipodi:nodetypes="csc" class="st2" d="M47.3,176.3c0,0,3.6-6.6,3.9-10.1
		c0.2-3.1-4.8-5.2-6.7-2.6"/>
	<path id="path4326" inkscape:connector-curvature="0" sodipodi:nodetypes="csc" class="st3" d="M37.5,161c2.1-1.7,6.5-0.9,6.9,2.3
		c0.4,2.9,0.4,6.4-1.3,11"/>
	<polygon id="rect4330" class="st4" points="37.4,155.7 39.7,158.4 37.4,161.1 35.1,158.4 	"/>
	<polygon id="rect4330-7" class="st5" points="37.6,166.7 40.2,169.9 37.7,173.1 35.1,169.9 	"/>
	<circle id="path4347" class="st6" cx="37.4" cy="164" r="2.6"/>
	<path id="path4326-2" inkscape:connector-curvature="0" sodipodi:nodetypes="csc" class="st7" d="M37,160.9
		c-1.9-1.6-5.8-0.9-6.1,2.2c-0.3,2.8-0.1,6.4,1.4,10.8"/>
	<path id="path4324-1" inkscape:connector-curvature="0" sodipodi:nodetypes="csc" class="st2" d="M28.1,175.6c0,0-3.6-6.6-3.9-10.1
		c-0.2-3.1,4.8-5.2,6.6-2.6"/>
	<path id="path4383" inkscape:connector-curvature="0" class="st8" d="M37.5,156v-4.6"/>
	<path id="path4383-8" inkscape:connector-curvature="0" class="st8" d="M35.3,153.3h4.6"/>
	<rect id="rect3347-6" x="24.2" y="182.1" class="st0" width="2.1" height="155.3"/>
	<rect id="rect3347-0-6" x="28.5" y="185.3" class="st0" width="2.2" height="148"/>
	<path id="path4462" inkscape:connector-curvature="0" sodipodi:nodetypes="cscssc" class="st0" d="M44.5,186.6
		c-9.4,3.9-11.3,6.9-14.2,12.1c-2.5,4.3-0.6-7.9-0.6-7.9s0.2-0.3,0.6-0.6c2.1-1.7,2.8-2.9,2.7-3.7C32.9,185.4,44.5,186.6,44.5,186.6
		z"/>
	<path id="path4464" inkscape:connector-curvature="0" sodipodi:nodetypes="ssszcs" class="st0" d="M29.8,208.2
		c1.5,0.5,8.7,1.3,9.5-3.4c0.6-4.5-3.1-6.9-7.3-3.7c-1.6,1.4,2.4,0.4,2.2,3c-0.2,2.3-4,0.9-4,0.9S29.4,208.1,29.8,208.2z"/>
	<path class="st9" d="M30.5,216.9c-1.4,0.4-1.1-7.3,0.3-6.9c3.9,1.2,6-1.3,6,0.2C36.7,211.8,34.7,215.8,30.5,216.9z"/>
</g>
<path class="st9" d="M30.5,301.1c-1.4-0.4-1.1,7.3,0.3,6.9c3.9-1.2,6,1.3,6-0.2C36.7,306.2,34.7,302.2,30.5,301.1z"/>
<path id="path4464_1_" inkscape:connector-curvature="0" sodipodi:nodetypes="ssszcs" class="st0" d="M29.8,310.1
	c1.5-0.5,8.7-1.3,9.5,3.4c0.6,4.5-3.1,6.9-7.3,3.7c-1.6-1.4,2.4-0.4,2.2-3c-0.2-2.3-4-0.9-4-0.9S29.4,310.2,29.8,310.1z"/>
<circle id="path4303_1_" class="st1" cx="37.9" cy="351.6" r="19.5"/>
<path id="path4462_1_" inkscape:connector-curvature="0" sodipodi:nodetypes="cscssc" class="st0" d="M44.7,332.5
	c-9.4-3.9-11.3-6.9-14.2-12.1c-2.5-4.3-0.6,7.9-0.6,7.9s0.2,0.3,0.6,0.6c2.1,1.7,2.8,2.9,2.7,3.7C33.1,333.7,44.7,332.5,44.7,332.5z
	"/>
<path class="st9" d="M46,358.6l-0.6,0.6c-0.4,0.4-1,0.4-1.4,0l-11.4-11.4c-0.4-0.4-0.4-1,0-1.4l0.6-0.6c0.4-0.4,1-0.4,1.4,0
	L46,357.2C46.4,357.6,46.4,358.2,46,358.6z"/>
<path class="st9" d="M42.5,345.9l1.2,1.1c0.2,0.2,0.3,0.6,0,0.9l-4.9,5.1c-0.2,0.2-0.6,0.3-0.9,0l-1.2-1.1c-0.2-0.2-0.3-0.6,0-0.9
	l4.9-5.1C41.8,345.7,42.2,345.7,42.5,345.9z"/>
<path class="st9" d="M44,355.4l1.8,1.7c0,0.3,0,0.5,0,0.8l-3.2,3.4c-0.2,0.2-0.5,0.2-0.7,0c-0.6-0.7,0-0.8,0-1.3
	c0-0.3-0.2-0.5-0.5-0.5c-0.6,0-0.6,0.9-1.4,0c0,0-0.2-0.1-0.2-0.4c0-0.1,0-0.3,0.1-0.4l3.2-3.4C43.5,355.4,43.7,355.4,44,355.4z"/>
<path class="st9" d="M31.9,355.8l-1.8,1.7c0,0.3,0,0.5,0,0.8l3,3.1c0.2,0.2,0.5,0.2,0.7,0c0.6-0.7,0-0.8,0-1.3
	c0-0.2,0.2-0.5,0.5-0.5c0.5,0,0.5,0.9,1.4,0c0,0,0.2-0.1,0.2-0.3c0-0.1,0-0.2-0.1-0.3l-3-3.1C32.4,355.8,32.2,355.8,31.9,355.8z"/>
<path class="st9" d="M36.6,353.8l-0.8-0.8c-0.3-0.3-0.9-0.3-1.2,0l-4.6,4.6c-0.3,0.3-0.3,0.9,0,1.2l0.8,0.8c0.3,0.3,0.9,0.3,1.2,0
	l4.6-4.6C36.9,354.7,36.9,354.2,36.6,353.8z"/>
<ellipse class="st10" cx="45.1" cy="343.3" rx="3.7" ry="2.7"/>
</svg>
