<?xml version="1.0" encoding="utf-8"?>
<!-- Generator: Adobe Illustrator 23.0.2, SVG Export Plug-In . SVG Version: 6.00 Build 0)  -->
<svg version="1.1" xmlns="http://www.w3.org/2000/svg" xmlns:xlink="http://www.w3.org/1999/xlink" x="0px" y="0px"
	 viewBox="0 0 595.3 841.9" style="enable-background:new 0 0 595.3 841.9;" xml:space="preserve">
<style type="text/css">
	.st0{display:none;}
	.st1{display:inline;}
	.st2{fill-rule:evenodd;clip-rule:evenodd;fill:#FFFD7D;}
	.st3{fill:none;stroke:#FFFD7D;stroke-width:2.5;}
	.st4{fill:none;stroke:#FFFD7D;stroke-linecap:round;}
	.st5{fill:none;stroke:#FFFD7D;stroke-linecap:square;}
	.st6{fill:none;stroke:#FFFD7D;stroke-width:0.8823;stroke-linecap:square;}
	.st7{fill:none;stroke:#FFFD7D;stroke-width:1.0381;stroke-linecap:square;}
	.st8{fill:none;stroke:#FFFD7D;stroke-width:1.2039;stroke-linecap:square;}
	.st9{fill:none;stroke:#FFFD7D;stroke-width:0.934;stroke-linecap:square;}
	.st10{fill:none;stroke:#FFFD7D;stroke-width:1.0528;}
	.st11{fill:#FFFD7D;}
	.st12{display:inline;fill:#FFFD7D;}
	.st13{display:inline;fill-rule:evenodd;clip-rule:evenodd;fill:#FFFD7D;}
	.st14{display:inline;fill:none;stroke:#FFFD7D;stroke-width:2.5;}
	.st15{display:inline;fill:none;stroke:#FFFD7D;stroke-width:1.5;stroke-miterlimit:10;}
	.st16{display:inline;fill:none;stroke:#FFFD7D;stroke-linecap:round;}
	.st17{display:inline;fill:none;stroke:#FFFD7D;stroke-linecap:square;}
	.st18{display:inline;fill:none;stroke:#FFFD7D;stroke-width:0.8823;stroke-linecap:square;}
	.st19{display:inline;fill:none;stroke:#FFFD7D;stroke-width:1.0381;stroke-linecap:square;}
	.st20{display:inline;fill:none;stroke:#FFFD7D;stroke-width:1.2039;stroke-linecap:square;}
	.st21{display:inline;fill:none;stroke:#FFFD7D;stroke-width:0.934;stroke-linecap:square;}
	.st22{display:inline;fill:none;stroke:#FFFD7D;stroke-width:1.0528;}
	.st23{fill:none;stroke:#FFFD7D;stroke-width:0.3757;}
	.st24{fill:none;stroke:#FFFD7D;stroke-width:0.1503;stroke-linecap:round;}
	.st25{fill:none;stroke:#FFFD7D;stroke-width:0.1503;stroke-linecap:square;}
	.st26{fill:none;stroke:#FFFD7D;stroke-width:0.1326;stroke-linecap:square;}
	.st27{fill:none;stroke:#FFFD7D;stroke-width:0.156;stroke-linecap:square;}
	.st28{fill:none;stroke:#FFFD7D;stroke-width:0.1809;stroke-linecap:square;}
	.st29{fill:none;stroke:#FFFD7D;stroke-width:0.1404;stroke-linecap:square;}
	.st30{fill:none;stroke:#FFFD7D;stroke-width:0.1582;}
	.st31{fill:none;stroke:#FFFD7D;stroke-width:0.2254;stroke-miterlimit:10;}
</style>
<g id="svg2" xmlns:cc="http://creativecommons.org/ns#" xmlns:dc="http://purl.org/dc/elements/1.1/" xmlns:inkscape="http://www.inkscape.org/namespaces/inkscape" xmlns:rdf="http://www.w3.org/1999/02/22-rdf-syntax-ns#" xmlns:sodipodi="http://sodipodi.sourceforge.net/DTD/sodipodi-0.dtd" xmlns:svg="http://www.w3.org/2000/svg" class="st0">
	
		<sodipodi:namedview  bordercolor="#666666" borderopacity="1.0" id="base" inkscape:current-layer="layer3" inkscape:cx="144.56648" inkscape:cy="807.05895" inkscape:document-units="px" inkscape:pageopacity="0.0" inkscape:pageshadow="2" inkscape:window-height="837" inkscape:window-maximized="1" inkscape:window-width="1440" inkscape:window-x="-8" inkscape:window-y="-8" inkscape:zoom="4" pagecolor="#ffffff" showgrid="false">
		</sodipodi:namedview>
	<g id="layer3" inkscape:groupmode="layer" inkscape:label="Layer 2">
		
			<image style="display:inline;overflow:visible;enable-background:new    ;" width="843" height="357" id="image4213" xlink:href="BB36ECF3.png"  transform="matrix(0.6705 0 0 0.6705 10.1052 400.7373)">
		</image>
	</g>
	<g id="layer1" inkscape:groupmode="layer" inkscape:label="Layer 1" class="st1">
		<g>
			<path id="path4176" inkscape:connector-curvature="0" sodipodi:nodetypes="czzc" class="st2" d="M69.7,162.7c0,0,2,1.3,1.7,4.6
				s5-3.8,5.2-4.6S69.7,162.7,69.7,162.7L69.7,162.7z"/>
			<path id="path4176-5" inkscape:connector-curvature="0" sodipodi:nodetypes="czsssssc" class="st2" d="M68.3,162.9
				c0,0,2,1.3,1.7,4.6s-4,4.1-6.7,3.5c-1.8-0.4-4.1-3.8-1.7-4.9c1.2-0.5,2.6,1.4,3,0.1c0.4-1.3-3.1-2.2-6.9-1.2
				c-0.7,0.2-1.2-2.1,0.7-2.5C61.1,161.9,68.2,162.9,68.3,162.9z"/>
		</g>
		<circle id="path4303" class="st3" cx="37.9" cy="167.4" r="19.5"/>
		<path id="path4307" inkscape:connector-curvature="0" sodipodi:nodetypes="cc" class="st4" d="M29.7,177.4c0,0,8.6-4.3,15.9,0.4"
			/>
		<path id="path4307-8" inkscape:connector-curvature="0" sodipodi:nodetypes="cc" class="st4" d="M28,175.9c0,0,11-5.8,19.5,0.8"/>
		<path id="path4324" inkscape:connector-curvature="0" sodipodi:nodetypes="csc" class="st4" d="M47.3,176.3c0,0,3.6-6.6,3.9-10.1
			c0.2-3.1-4.8-5.2-6.7-2.6"/>
		<path id="path4326" inkscape:connector-curvature="0" sodipodi:nodetypes="csc" class="st5" d="M37.5,161c2.1-1.7,6.5-0.9,6.9,2.3
			c0.4,2.9,0.4,6.4-1.3,11"/>
		<polygon id="rect4330" class="st6" points="37.4,155.7 39.7,158.4 37.4,161.1 35.1,158.4 		"/>
		<polygon id="rect4330-7" class="st7" points="37.6,166.7 40.2,169.9 37.7,173.1 35.1,169.9 		"/>
		<circle id="path4347" class="st8" cx="37.4" cy="164" r="2.6"/>
		<path id="path4326-2" inkscape:connector-curvature="0" sodipodi:nodetypes="csc" class="st9" d="M37,160.9
			c-1.9-1.6-5.8-0.9-6.1,2.2c-0.3,2.8-0.1,6.4,1.4,10.8"/>
		<path id="path4324-1" inkscape:connector-curvature="0" sodipodi:nodetypes="csc" class="st4" d="M28.1,175.6
			c0,0-3.6-6.6-3.9-10.1c-0.2-3.1,4.8-5.2,6.6-2.6"/>
		<path id="path4383" inkscape:connector-curvature="0" class="st10" d="M37.5,156v-4.6"/>
		<path id="path4383-8" inkscape:connector-curvature="0" class="st10" d="M35.3,153.3h4.6"/>
		<rect id="rect3347-6" x="24.2" y="182.1" class="st2" width="2.1" height="155.3"/>
		<rect id="rect3347-0-6" x="28.5" y="185.3" class="st2" width="2.2" height="148"/>
		<path id="path4462" inkscape:connector-curvature="0" sodipodi:nodetypes="cscssc" class="st2" d="M44.5,186.6
			c-9.4,3.9-11.3,6.9-14.2,12.1c-2.5,4.3-0.6-7.9-0.6-7.9s0.2-0.3,0.6-0.6c2.1-1.7,2.8-2.9,2.7-3.7
			C32.9,185.4,44.5,186.6,44.5,186.6z"/>
		<path id="path4464" inkscape:connector-curvature="0" sodipodi:nodetypes="ssszcs" class="st2" d="M29.8,208.2
			c1.5,0.5,8.7,1.3,9.5-3.4c0.6-4.5-3.1-6.9-7.3-3.7c-1.6,1.4,2.4,0.4,2.2,3c-0.2,2.3-4,0.9-4,0.9S29.4,208.1,29.8,208.2z"/>
		<path class="st11" d="M30.5,216.9c-1.4,0.4-1.1-7.3,0.3-6.9c3.9,1.2,6-1.3,6,0.2C36.7,211.8,34.7,215.8,30.5,216.9z"/>
	</g>
	<path class="st12" d="M30.5,301.1c-1.4-0.4-1.1,7.3,0.3,6.9c3.9-1.2,6,1.3,6-0.2C36.7,306.2,34.7,302.2,30.5,301.1z"/>
	<path id="path4464_1_" inkscape:connector-curvature="0" sodipodi:nodetypes="ssszcs" class="st13" d="M29.8,310.1
		c1.5-0.5,8.7-1.3,9.5,3.4c0.6,4.5-3.1,6.9-7.3,3.7c-1.6-1.4,2.4-0.4,2.2-3c-0.2-2.3-4-0.9-4-0.9S29.4,310.2,29.8,310.1z"/>
	<circle id="path4303_1_" class="st14" cx="37.9" cy="351.6" r="19.5"/>
	<path id="path4462_1_" inkscape:connector-curvature="0" sodipodi:nodetypes="cscssc" class="st13" d="M44.7,332.5
		c-9.4-3.9-11.3-6.9-14.2-12.1c-2.5-4.3-0.6,7.9-0.6,7.9s0.2,0.3,0.6,0.6c2.1,1.7,2.8,2.9,2.7,3.7C33.1,333.7,44.7,332.5,44.7,332.5
		z"/>
	<path class="st12" d="M46,358.6l-0.6,0.6c-0.4,0.4-1,0.4-1.4,0l-11.4-11.4c-0.4-0.4-0.4-1,0-1.4l0.6-0.6c0.4-0.4,1-0.4,1.4,0
		L46,357.2C46.4,357.6,46.4,358.2,46,358.6z"/>
	<path class="st12" d="M42.5,345.9l1.2,1.1c0.2,0.2,0.3,0.6,0,0.9l-4.9,5.1c-0.2,0.2-0.6,0.3-0.9,0l-1.2-1.1c-0.2-0.2-0.3-0.6,0-0.9
		l4.9-5.1C41.8,345.7,42.2,345.7,42.5,345.9z"/>
	<path class="st12" d="M44,355.4l1.8,1.7c0,0.3,0,0.5,0,0.8l-3.2,3.4c-0.2,0.2-0.5,0.2-0.7,0c-0.6-0.7,0-0.8,0-1.3
		c0-0.3-0.2-0.5-0.5-0.5c-0.6,0-0.6,0.9-1.4,0c0,0-0.2-0.1-0.2-0.4c0-0.1,0-0.3,0.1-0.4l3.2-3.4C43.5,355.4,43.7,355.4,44,355.4z"/>
	<path class="st12" d="M31.9,355.8l-1.8,1.7c0,0.3,0,0.5,0,0.8l3,3.1c0.2,0.2,0.5,0.2,0.7,0c0.6-0.7,0-0.8,0-1.3
		c0-0.2,0.2-0.5,0.5-0.5c0.5,0,0.5,0.9,1.4,0c0,0,0.2-0.1,0.2-0.3c0-0.1,0-0.2-0.1-0.3l-3-3.1C32.4,355.8,32.2,355.8,31.9,355.8z"/>
	<path class="st12" d="M36.6,353.8l-0.8-0.8c-0.3-0.3-0.9-0.3-1.2,0l-4.6,4.6c-0.3,0.3-0.3,0.9,0,1.2l0.8,0.8c0.3,0.3,0.9,0.3,1.2,0
		l4.6-4.6C36.9,354.7,36.9,354.2,36.6,353.8z"/>
	<circle class="st15" cx="43.1" cy="343.2" r="2.6"/>
	<circle class="st15" cx="46.5" cy="346.4" r="2.6"/>
	<circle class="st15" cx="33.6" cy="343.2" r="2.6"/>
	<circle class="st15" cx="30.1" cy="346.4" r="2.6"/>
	<g class="st1">
		<path id="path4176_1_" inkscape:connector-curvature="0" sodipodi:nodetypes="czzc" class="st2" d="M69.7,356.2c0,0,7.1,0.8,6.9,0
			c-0.2-0.8-5.5-7.9-5.2-4.6C71.7,354.9,69.7,356.2,69.7,356.2L69.7,356.2z"/>
		<path id="path4176-5_1_" inkscape:connector-curvature="0" sodipodi:nodetypes="czsssssc" class="st2" d="M58.4,356.4
			c-1.9-0.4-1.4-2.7-0.7-2.5c3.8,1,7.3,0.1,6.9-1.2c-0.4-1.3-1.8,0.6-3,0.1c-2.4-1.1-0.1-4.5,1.7-4.9c2.7-0.6,6.4,0.2,6.7,3.5
			c0.3,3.3-1.7,4.6-1.7,4.6C68.2,356,61.1,357,58.4,356.4z"/>
	</g>
	<g id="layer1_1_" inkscape:groupmode="layer" inkscape:label="Layer 1" class="st1">
		<g>
			<rect id="rect3347_3_" x="54.5" y="156" class="st2" width="151.7" height="2.1"/>
			<rect id="rect3347-0_3_" x="56.9" y="161.1" class="st2" width="147.6" height="2.2"/>
			<path id="path4176_3_" inkscape:connector-curvature="0" sodipodi:nodetypes="czzc" class="st2" d="M191.2,162.7
				c0,0-7.1-0.8-6.9,0s5.5,7.9,5.2,4.6S191.2,162.7,191.2,162.7L191.2,162.7z"/>
			<path id="path4176-5_3_" inkscape:connector-curvature="0" sodipodi:nodetypes="czsssssc" class="st2" d="M202.5,162.5
				c1.9,0.4,1.4,2.7,0.7,2.5c-3.8-1-7.3-0.1-6.9,1.2c0.4,1.3,1.8-0.6,3-0.1c2.4,1.1,0.1,4.5-1.7,4.9c-2.7,0.6-6.4-0.2-6.7-3.5
				s1.7-4.6,1.7-4.6C192.7,162.9,199.8,161.9,202.5,162.5z"/>
		</g>
		<circle id="path4303_3_" class="st3" cx="223" cy="167.4" r="19.5"/>
		<rect id="rect3347-6_1_" x="234.6" y="182.1" class="st2" width="2.1" height="155.3"/>
		<rect id="rect3347-0-6_1_" x="230.2" y="185.3" class="st2" width="2.2" height="148"/>
		<path id="path4462_3_" inkscape:connector-curvature="0" sodipodi:nodetypes="cscssc" class="st2" d="M227.9,186.5
			c-0.1,0.8,0.6,2,2.7,3.7c0.4,0.3,0.6,0.6,0.6,0.6s1.9,12.2-0.6,7.9c-2.9-5.2-4.8-8.2-14.2-12.1C216.4,186.6,228,185.4,227.9,186.5
			z"/>
		<path id="path4464_3_" inkscape:connector-curvature="0" sodipodi:nodetypes="ssszcs" class="st2" d="M230.7,205
			c0,0-3.8,1.4-4-0.9c-0.2-2.6,3.8-1.6,2.2-3c-4.2-3.2-7.9-0.8-7.3,3.7c0.8,4.7,8,3.9,9.5,3.4C231.5,208.1,230.7,205,230.7,205z"/>
		<path class="st11" d="M224.1,210.2c0-1.5,2.1,1,6-0.2c1.4-0.4,1.7,7.3,0.3,6.9C226.2,215.8,224.2,211.8,224.1,210.2z"/>
	</g>
	<path class="st12" d="M224.1,307.8c0,1.5,2.1-1,6,0.2c1.4,0.4,1.7-7.3,0.3-6.9C226.2,302.2,224.2,306.2,224.1,307.8z"/>
	<path id="path4464_2_" inkscape:connector-curvature="0" sodipodi:nodetypes="ssszcs" class="st13" d="M230.7,313.3
		c0,0-3.8-1.4-4,0.9c-0.2,2.6,3.8,1.6,2.2,3c-4.2,3.2-7.9,0.8-7.3-3.7c0.8-4.7,8-3.9,9.5-3.4C231.5,310.2,230.7,313.3,230.7,313.3z"
		/>
	<circle id="path4303_2_" class="st14" cx="223" cy="351.6" r="19.5"/>
	<path id="path4462_2_" inkscape:connector-curvature="0" sodipodi:nodetypes="cscssc" class="st13" d="M227.7,332.6
		c-0.1-0.8,0.6-2,2.7-3.7c0.4-0.3,0.6-0.6,0.6-0.6s1.9-12.2-0.6-7.9c-2.9,5.2-4.8,8.2-14.2,12.1
		C216.2,332.5,227.8,333.7,227.7,332.6z"/>
	<path class="st12" d="M214.9,357.2l11.4-11.4c0.4-0.4,1-0.4,1.4,0l0.6,0.6c0.4,0.4,0.4,1,0,1.4l-11.4,11.4c-0.4,0.4-1,0.4-1.4,0
		l-0.6-0.6C214.5,358.2,214.5,357.6,214.9,357.2z"/>
	<path class="st12" d="M219.3,345.9l4.9,5.1c0.3,0.3,0.2,0.7,0,0.9L223,353c-0.3,0.3-0.7,0.2-0.9,0l-4.9-5.1c-0.3-0.3-0.2-0.7,0-0.9
		l1.2-1.1C218.7,345.7,219.1,345.7,219.3,345.9z"/>
	<path class="st12" d="M217.8,355.3l3.2,3.4c0.1,0.1,0.1,0.3,0.1,0.4c0,0.3-0.2,0.4-0.2,0.4c-0.8,0.9-0.8,0-1.4,0
		c-0.3,0-0.5,0.2-0.5,0.5c0,0.5,0.6,0.6,0,1.3c-0.2,0.2-0.5,0.2-0.7,0l-3.2-3.4c0-0.3,0-0.5,0-0.8l1.8-1.7
		C217.2,355.4,217.4,355.4,217.8,355.3z"/>
	<path class="st12" d="M228.1,355.9l-3,3.1c-0.1,0.1-0.1,0.2-0.1,0.3c0,0.2,0.2,0.3,0.2,0.3c0.9,0.9,0.9,0,1.4,0
		c0.3,0,0.5,0.3,0.5,0.5c0,0.5-0.6,0.6,0,1.3c0.2,0.2,0.5,0.2,0.7,0l3-3.1c0-0.3,0-0.5,0-0.8l-1.8-1.7
		C228.7,355.8,228.5,355.8,228.1,355.9z"/>
	<path class="st12" d="M224.3,355l4.6,4.6c0.3,0.3,0.9,0.3,1.2,0l0.8-0.8c0.3-0.3,0.3-0.9,0-1.2l-4.6-4.6c-0.3-0.3-0.9-0.3-1.2,0
		l-0.8,0.8C224,354.2,224,354.7,224.3,355z"/>
	<circle class="st15" cx="217.8" cy="343.2" r="2.6"/>
	<circle class="st15" cx="214.4" cy="346.3" r="2.6"/>
	<circle class="st15" cx="227.4" cy="343.2" r="2.6"/>
	<circle class="st15" cx="230.8" cy="346.3" r="2.6"/>
	<g class="st1">
		<rect id="rect3347_2_" x="54.3" y="360.8" class="st2" width="152.4" height="2.1"/>
		<rect id="rect3347-0_2_" x="56.4" y="355.6" class="st2" width="147.5" height="2.2"/>
		<path id="path4176_2_" inkscape:connector-curvature="0" sodipodi:nodetypes="czzc" class="st2" d="M191.2,356.2
			c0,0-2-1.3-1.7-4.6c0.3-3.3-5,3.8-5.2,4.6C184.1,357,191.2,356.2,191.2,356.2L191.2,356.2z"/>
		<path id="path4176-5_2_" inkscape:connector-curvature="0" sodipodi:nodetypes="czsssssc" class="st2" d="M192.6,356
			c0,0-2-1.3-1.7-4.6c0.3-3.3,4-4.1,6.7-3.5c1.8,0.4,4.1,3.8,1.7,4.9c-1.2,0.5-2.6-1.4-3-0.1c-0.4,1.3,3.1,2.2,6.9,1.2
			c0.7-0.2,1.2,2.1-0.7,2.5C199.8,357,192.7,356,192.6,356z"/>
	</g>
	<path id="path4307_1_" inkscape:connector-curvature="0" sodipodi:nodetypes="cc" class="st16" d="M216.1,178.1
		c0,0,8.6-4.3,15.9,0.4"/>
	<path id="path4307-8_1_" inkscape:connector-curvature="0" sodipodi:nodetypes="cc" class="st16" d="M214.4,176.6
		c0,0,11-5.8,19.5,0.8"/>
	<path id="path4324_1_" inkscape:connector-curvature="0" sodipodi:nodetypes="csc" class="st16" d="M233.7,177
		c0,0,3.6-6.6,3.9-10.1c0.2-3.1-4.8-5.2-6.7-2.6"/>
	<path id="path4326_1_" inkscape:connector-curvature="0" sodipodi:nodetypes="csc" class="st17" d="M223.9,161.7
		c2.1-1.7,6.5-0.9,6.9,2.3c0.4,2.9,0.4,6.4-1.3,11"/>
	<polygon id="rect4330_1_" class="st18" points="223.8,156.4 226.1,159.1 223.8,161.8 221.5,159.1 	"/>
	<polygon id="rect4330-7_1_" class="st19" points="224,167.4 226.6,170.6 224.1,173.8 221.5,170.6 	"/>
	<circle id="path4347_1_" class="st20" cx="223.8" cy="164.7" r="2.6"/>
	<path id="path4326-2_1_" inkscape:connector-curvature="0" sodipodi:nodetypes="csc" class="st21" d="M223.4,161.6
		c-1.9-1.6-5.8-0.9-6.1,2.2c-0.3,2.8-0.1,6.4,1.4,10.8"/>
	<path id="path4324-1_1_" inkscape:connector-curvature="0" sodipodi:nodetypes="csc" class="st16" d="M214.5,176.3
		c0,0-3.6-6.6-3.9-10.1c-0.2-3.1,4.8-5.2,6.6-2.6"/>
	<path id="path4383_1_" inkscape:connector-curvature="0" class="st22" d="M223.9,156.7v-4.6"/>
	<path id="path4383-8_1_" inkscape:connector-curvature="0" class="st22" d="M221.7,154h4.6"/>
</g>
<g id="Слой_2">
	
		<image style="overflow:visible;" width="1920" height="1080" xlink:href="14253FD3.jpg"  transform="matrix(0.251 0 0 0.251 81.9263 409.5959)">
	</image>
	<g id="обводка">
		<g id="layer1_3_" inkscape:groupmode="layer" inkscape:label="Layer 1">
			<g>
				<path id="path4176_7_" inkscape:connector-curvature="0" sodipodi:nodetypes="czzc" class="st2" d="M245.6,431.5
					c0,0,0.4,0.1,0.3,0.5s1-0.4,1-0.5C247,431.4,245.6,431.5,245.6,431.5L245.6,431.5z"/>
				<path id="path4176-5_7_" inkscape:connector-curvature="0" sodipodi:nodetypes="czsssssc" class="st2" d="M245.3,431.5
					c0,0,0.4,0.1,0.3,0.5c-0.1,0.4-0.8,0.5-1.3,0.4c-0.4,0-0.8-0.4-0.3-0.6c0.2-0.1,0.5,0.2,0.6,0c0.1-0.1-0.6-0.2-1.4-0.1
					c-0.1,0-0.2-0.2,0.1-0.3C243.9,431.4,245.3,431.5,245.3,431.5z"/>
			</g>
			<ellipse id="path4303_7_" class="st23" cx="239.3" cy="432" rx="3.9" ry="2.2"/>
			<path id="path4307_3_" inkscape:connector-curvature="0" sodipodi:nodetypes="cc" class="st24" d="M237.6,433.1
				c0,0,1.7-0.5,3.2,0"/>
			<path id="path4307-8_3_" inkscape:connector-curvature="0" sodipodi:nodetypes="cc" class="st24" d="M237.3,433
				c0,0,2.2-0.7,3.9,0.1"/>
			<path id="path4324_3_" inkscape:connector-curvature="0" sodipodi:nodetypes="csc" class="st24" d="M241.1,433
				c0,0,0.7-0.7,0.8-1.1c0-0.4-1-0.6-1.3-0.3"/>
			<path id="path4326_3_" inkscape:connector-curvature="0" sodipodi:nodetypes="csc" class="st25" d="M239.2,431.3
				c0.4-0.2,1.3-0.1,1.4,0.3c0.1,0.3,0.1,0.7-0.3,1.2"/>
			<polygon id="rect4330_3_" class="st26" points="239.2,430.7 239.6,431 239.2,431.3 238.7,431 			"/>
			<polygon id="rect4330-7_3_" class="st27" points="239.2,431.9 239.7,432.3 239.2,432.7 238.7,432.3 			"/>
			<ellipse id="path4347_3_" class="st28" cx="239.2" cy="431.6" rx="0.5" ry="0.3"/>
			<path id="path4326-2_3_" inkscape:connector-curvature="0" sodipodi:nodetypes="csc" class="st29" d="M239.1,431.3
				c-0.4-0.2-1.2-0.1-1.2,0.2c-0.1,0.3,0,0.7,0.3,1.2"/>
			<path id="path4324-1_3_" inkscape:connector-curvature="0" sodipodi:nodetypes="csc" class="st24" d="M237.3,432.9
				c0,0-0.7-0.7-0.8-1.1c0-0.4,1-0.6,1.3-0.3"/>
			<path id="path4383_3_" inkscape:connector-curvature="0" class="st30" d="M239.2,430.7v-0.5"/>
			<path id="path4383-8_3_" inkscape:connector-curvature="0" class="st30" d="M238.7,430.4h0.9"/>
			<rect id="rect3347-6_3_" x="236.5" y="433.7" class="st2" width="0.4" height="17.5"/>
			<rect id="rect3347-0-6_3_" x="237.4" y="434" class="st2" width="0.4" height="16.7"/>
			<path id="path4462_7_" inkscape:connector-curvature="0" sodipodi:nodetypes="cscssc" class="st2" d="M240.6,434.2
				c-1.9,0.4-2.3,0.8-2.8,1.4c-0.5,0.5-0.1-0.9-0.1-0.9s0,0,0.1-0.1c0.4-0.2,0.6-0.3,0.5-0.4C238.3,434.1,240.6,434.2,240.6,434.2z"
				/>
			<path id="path4464_7_" inkscape:connector-curvature="0" sodipodi:nodetypes="ssszcs" class="st2" d="M237.6,436.6
				c0.3,0.1,1.7,0.1,1.9-0.4c0.1-0.5-0.6-0.8-1.5-0.4c-0.3,0.2,0.5,0,0.4,0.3c0,0.3-0.8,0.1-0.8,0.1S237.6,436.6,237.6,436.6z"/>
			<path class="st11" d="M237.8,437.6c-0.3,0-0.2-0.8,0.1-0.8c0.8,0.1,1.2-0.1,1.2,0C239,437,238.6,437.5,237.8,437.6z"/>
		</g>
		<path class="st11" d="M237.8,447.1c-0.3,0-0.2,0.8,0.1,0.8c0.8-0.1,1.2,0.1,1.2,0C239,447.7,238.6,447.2,237.8,447.1z"/>
		<path id="path4464_6_" inkscape:connector-curvature="0" sodipodi:nodetypes="ssszcs" class="st2" d="M237.6,448.1
			c0.3-0.1,1.7-0.1,1.9,0.4c0.1,0.5-0.6,0.8-1.5,0.4c-0.3-0.2,0.5,0,0.4-0.3c0-0.3-0.8-0.1-0.8-0.1S237.6,448.1,237.6,448.1z"/>
		<ellipse id="path4303_6_" class="st23" cx="239.3" cy="452.8" rx="3.9" ry="2.2"/>
		<path id="path4462_6_" inkscape:connector-curvature="0" sodipodi:nodetypes="cscssc" class="st2" d="M240.6,450.7
			c-1.9-0.4-2.3-0.8-2.8-1.4c-0.5-0.5-0.1,0.9-0.1,0.9s0,0,0.1,0.1c0.4,0.2,0.6,0.3,0.5,0.4C238.3,450.8,240.6,450.7,240.6,450.7z"
			/>
		<path class="st11" d="M240.9,453.6l-0.1,0.1c-0.1,0-0.2,0-0.3,0l-2.3-1.3c-0.1,0-0.1-0.1,0-0.2l0.1-0.1c0.1,0,0.2,0,0.3,0l2.3,1.3
			C241,453.5,241,453.6,240.9,453.6z"/>
		<path class="st11" d="M240.2,452.2l0.2,0.1c0,0,0.1,0.1,0,0.1l-1,0.6c0,0-0.1,0-0.2,0l-0.2-0.1c0,0-0.1-0.1,0-0.1l1-0.6
			C240,452.2,240.1,452.2,240.2,452.2z"/>
		<path class="st11" d="M240.5,453.2l0.4,0.2c0,0,0,0.1,0,0.1l-0.6,0.4c0,0-0.1,0-0.1,0c-0.1-0.1,0-0.1,0-0.1c0,0,0-0.1-0.1-0.1
			c-0.1,0-0.1,0.1-0.3,0c0,0,0,0,0,0c0,0,0,0,0,0l0.6-0.4C240.4,453.2,240.4,453.2,240.5,453.2z"/>
		<path class="st11" d="M238.1,453.3l-0.4,0.2c0,0,0,0.1,0,0.1l0.6,0.3c0,0,0.1,0,0.1,0c0.1-0.1,0-0.1,0-0.1c0,0,0-0.1,0.1-0.1
			c0.1,0,0.1,0.1,0.3,0c0,0,0,0,0,0c0,0,0,0,0,0l-0.6-0.3C238.2,453.3,238.1,453.3,238.1,453.3z"/>
		<path class="st11" d="M239,453.1l-0.2-0.1c-0.1,0-0.2,0-0.2,0l-0.9,0.5c-0.1,0-0.1,0.1,0,0.1l0.2,0.1c0.1,0,0.2,0,0.2,0l0.9-0.5
			C239.1,453.2,239.1,453.1,239,453.1z"/>
		<ellipse class="st31" cx="240.3" cy="451.9" rx="0.5" ry="0.3"/>
		<ellipse class="st31" cx="241" cy="452.2" rx="0.5" ry="0.3"/>
		<ellipse class="st31" cx="238.4" cy="451.9" rx="0.5" ry="0.3"/>
		<ellipse class="st31" cx="237.7" cy="452.2" rx="0.5" ry="0.3"/>
		<g>
			<path id="path4176_6_" inkscape:connector-curvature="0" sodipodi:nodetypes="czzc" class="st2" d="M245.6,453.3
				c0,0,1.4,0.1,1.4,0c0-0.1-1.1-0.9-1-0.5S245.6,453.3,245.6,453.3L245.6,453.3z"/>
			<path id="path4176-5_6_" inkscape:connector-curvature="0" sodipodi:nodetypes="czsssssc" class="st2" d="M243.4,453.4
				c-0.4,0-0.3-0.3-0.1-0.3c0.8,0.1,1.5,0,1.4-0.1c-0.1-0.1-0.4,0.1-0.6,0c-0.5-0.1,0-0.5,0.3-0.6c0.5-0.1,1.3,0,1.3,0.4
				c0.1,0.4-0.3,0.5-0.3,0.5C245.3,453.3,243.9,453.4,243.4,453.4z"/>
		</g>
		<g id="layer1_2_" inkscape:groupmode="layer" inkscape:label="Layer 1">
			<g>
				<rect id="rect3347_4_" x="242.6" y="430.7" class="st2" width="30.3" height="0.2"/>
				<rect id="rect3347-0_4_" x="243" y="431.3" class="st2" width="29.5" height="0.2"/>
				<path id="path4176_5_" inkscape:connector-curvature="0" sodipodi:nodetypes="czzc" class="st2" d="M269.9,431.5
					c0,0-1.4-0.1-1.4,0c0,0.1,1.1,0.9,1,0.5S269.9,431.5,269.9,431.5L269.9,431.5z"/>
				<path id="path4176-5_5_" inkscape:connector-curvature="0" sodipodi:nodetypes="czsssssc" class="st2" d="M272.2,431.5
					c0.4,0,0.3,0.3,0.1,0.3c-0.8-0.1-1.5,0-1.4,0.1c0.1,0.1,0.4-0.1,0.6,0c0.5,0.1,0,0.5-0.3,0.6c-0.5,0.1-1.3,0-1.3-0.4
					s0.3-0.5,0.3-0.5C270.2,431.5,271.6,431.4,272.2,431.5z"/>
			</g>
			<ellipse id="path4303_5_" class="st23" cx="276.3" cy="432" rx="3.9" ry="2.2"/>
			<rect id="rect3347-6_2_" x="278.6" y="433.7" class="st2" width="0.4" height="17.5"/>
			<rect id="rect3347-0-6_2_" x="277.7" y="434" class="st2" width="0.4" height="16.7"/>
			<path id="path4462_5_" inkscape:connector-curvature="0" sodipodi:nodetypes="cscssc" class="st2" d="M277.2,434.2
				c0,0.1,0.1,0.2,0.5,0.4c0.1,0,0.1,0.1,0.1,0.1s0.4,1.4-0.1,0.9c-0.6-0.6-1-0.9-2.8-1.4C274.9,434.2,277.3,434.1,277.2,434.2z"/>
			<path id="path4464_5_" inkscape:connector-curvature="0" sodipodi:nodetypes="ssszcs" class="st2" d="M277.8,436.3
				c0,0-0.8,0.2-0.8-0.1c0-0.3,0.8-0.2,0.4-0.3c-0.8-0.4-1.6-0.1-1.5,0.4c0.2,0.5,1.6,0.4,1.9,0.4
				C278,436.6,277.8,436.3,277.8,436.3z"/>
			<path class="st11" d="M276.5,436.9c0-0.2,0.4,0.1,1.2,0c0.3,0,0.3,0.8,0.1,0.8C276.9,437.5,276.5,437,276.5,436.9z"/>
		</g>
		<path class="st11" d="M276.5,447.9c0,0.2,0.4-0.1,1.2,0c0.3,0,0.3-0.8,0.1-0.8C276.9,447.2,276.5,447.7,276.5,447.9z"/>
		<path id="path4464_4_" inkscape:connector-curvature="0" sodipodi:nodetypes="ssszcs" class="st2" d="M277.8,448.5
			c0,0-0.8-0.2-0.8,0.1c0,0.3,0.8,0.2,0.4,0.3c-0.8,0.4-1.6,0.1-1.5-0.4c0.2-0.5,1.6-0.4,1.9-0.4C278,448.1,277.8,448.5,277.8,448.5
			z"/>
		<ellipse id="path4303_4_" class="st23" cx="276.3" cy="452.8" rx="3.9" ry="2.2"/>
		<path id="path4462_4_" inkscape:connector-curvature="0" sodipodi:nodetypes="cscssc" class="st2" d="M277.2,450.7
			c0-0.1,0.1-0.2,0.5-0.4c0.1,0,0.1-0.1,0.1-0.1s0.4-1.4-0.1-0.9c-0.6,0.6-1,0.9-2.8,1.4C274.9,450.7,277.2,450.8,277.2,450.7z"/>
		<path class="st11" d="M274.7,453.4l2.3-1.3c0.1,0,0.2,0,0.3,0l0.1,0.1c0.1,0,0.1,0.1,0,0.2l-2.3,1.3c-0.1,0-0.2,0-0.3,0l-0.1-0.1
			C274.6,453.6,274.6,453.5,274.7,453.4z"/>
		<path class="st11" d="M275.5,452.2l1,0.6c0.1,0,0,0.1,0,0.1l-0.2,0.1c-0.1,0-0.1,0-0.2,0l-1-0.6c-0.1,0,0-0.1,0-0.1l0.2-0.1
			C275.4,452.2,275.5,452.2,275.5,452.2z"/>
		<path class="st11" d="M275.2,453.2l0.6,0.4c0,0,0,0,0,0c0,0,0,0,0,0c-0.2,0.1-0.2,0-0.3,0c-0.1,0-0.1,0-0.1,0.1
			c0,0.1,0.1,0.1,0,0.1c0,0-0.1,0-0.1,0l-0.6-0.4c0,0,0-0.1,0-0.1l0.4-0.2C275.1,453.2,275.2,453.2,275.2,453.2z"/>
		<path class="st11" d="M277.3,453.3l-0.6,0.4c0,0,0,0,0,0c0,0,0,0,0,0c0.2,0.1,0.2,0,0.3,0c0.1,0,0.1,0,0.1,0.1
			c0,0.1-0.1,0.1,0,0.1c0,0,0.1,0,0.1,0l0.6-0.3c0,0,0-0.1,0-0.1l-0.4-0.2C277.4,453.3,277.4,453.3,277.3,453.3z"/>
		<path class="st11" d="M276.5,453.2l0.9,0.5c0.1,0,0.2,0,0.2,0l0.2-0.1c0.1,0,0.1-0.1,0-0.1l-0.9-0.5c-0.1,0-0.2,0-0.2,0l-0.2,0.1
			C276.5,453.1,276.5,453.2,276.5,453.2z"/>
		<ellipse class="st31" cx="275.2" cy="451.9" rx="0.5" ry="0.3"/>
		<ellipse class="st31" cx="274.5" cy="452.2" rx="0.5" ry="0.3"/>
		<ellipse class="st31" cx="277.1" cy="451.9" rx="0.5" ry="0.3"/>
		<ellipse class="st31" cx="277.8" cy="452.2" rx="0.5" ry="0.3"/>
		<g>
			<rect id="rect3347_1_" x="242.5" y="453.9" class="st2" width="30.5" height="0.2"/>
			<rect id="rect3347-0_1_" x="242.9" y="453.3" class="st2" width="29.5" height="0.2"/>
			<path id="path4176_4_" inkscape:connector-curvature="0" sodipodi:nodetypes="czzc" class="st2" d="M269.9,453.3
				c0,0-0.4-0.1-0.3-0.5c0.1-0.4-1,0.4-1,0.5C268.5,453.4,269.9,453.3,269.9,453.3L269.9,453.3z"/>
			<path id="path4176-5_4_" inkscape:connector-curvature="0" sodipodi:nodetypes="czsssssc" class="st2" d="M270.2,453.3
				c0,0-0.4-0.1-0.3-0.5c0.1-0.4,0.8-0.5,1.3-0.4c0.4,0,0.8,0.4,0.3,0.6c-0.2,0.1-0.5-0.2-0.6,0c-0.1,0.1,0.6,0.2,1.4,0.1
				c0.1,0,0.2,0.2-0.1,0.3C271.6,453.4,270.2,453.3,270.2,453.3z"/>
		</g>
		<path id="path4307_2_" inkscape:connector-curvature="0" sodipodi:nodetypes="cc" class="st24" d="M274.9,433.2c0,0,1.7-0.5,3.2,0
			"/>
		<path id="path4307-8_2_" inkscape:connector-curvature="0" sodipodi:nodetypes="cc" class="st24" d="M274.5,433.1
			c0,0,2.2-0.7,3.9,0.1"/>
		<path id="path4324_2_" inkscape:connector-curvature="0" sodipodi:nodetypes="csc" class="st24" d="M278.4,433.1
			c0,0,0.7-0.7,0.8-1.1c0-0.4-1-0.6-1.3-0.3"/>
		<path id="path4326_2_" inkscape:connector-curvature="0" sodipodi:nodetypes="csc" class="st25" d="M276.4,431.4
			c0.4-0.2,1.3-0.1,1.4,0.3c0.1,0.3,0.1,0.7-0.3,1.2"/>
		<polygon id="rect4330_2_" class="st26" points="276.4,430.8 276.9,431.1 276.4,431.4 276,431.1 		"/>
		<polygon id="rect4330-7_2_" class="st27" points="276.5,432 277,432.4 276.5,432.7 276,432.4 		"/>
		<ellipse id="path4347_2_" class="st28" cx="276.4" cy="431.7" rx="0.5" ry="0.3"/>
		<path id="path4326-2_2_" inkscape:connector-curvature="0" sodipodi:nodetypes="csc" class="st29" d="M276.3,431.4
			c-0.4-0.2-1.2-0.1-1.2,0.2c-0.1,0.3,0,0.7,0.3,1.2"/>
		<path id="path4324-1_2_" inkscape:connector-curvature="0" sodipodi:nodetypes="csc" class="st24" d="M274.6,433
			c0,0-0.7-0.7-0.8-1.1c0-0.3,1-0.6,1.3-0.3"/>
		<path id="path4383_2_" inkscape:connector-curvature="0" class="st30" d="M276.4,430.8v-0.5"/>
		<path id="path4383-8_2_" inkscape:connector-curvature="0" class="st30" d="M276,430.5h0.9"/>
	</g>
</g>
</svg>
