<?xml version="1.0" encoding="utf-8"?>
<!-- Generator: Adobe Illustrator 23.0.2, SVG Export Plug-In . SVG Version: 6.00 Build 0)  -->
<svg version="1.1"
	 id="svg2" xmlns:cc="http://creativecommons.org/ns#" xmlns:dc="http://purl.org/dc/elements/1.1/" xmlns:inkscape="http://www.inkscape.org/namespaces/inkscape" xmlns:rdf="http://www.w3.org/1999/02/22-rdf-syntax-ns#" xmlns:sodipodi="http://sodipodi.sourceforge.net/DTD/sodipodi-0.dtd" xmlns:svg="http://www.w3.org/2000/svg"
	 xmlns="http://www.w3.org/2000/svg" xmlns:xlink="http://www.w3.org/1999/xlink" x="0px" y="0px" viewBox="0 0 595.3 841.9"
	 style="enable-background:new 0 0 595.3 841.9;" xml:space="preserve">
<style type="text/css">
	.st0{display:none;}
	.st1{fill-rule:evenodd;clip-rule:evenodd;fill:#FFFD7D;}
	.st2{fill:none;stroke:#FFFD7D;stroke-width:2.5;}
	.st3{fill:none;stroke:#FFFD7D;stroke-linecap:round;}
	.st4{fill:none;stroke:#FFFD7D;stroke-linecap:square;}
	.st5{fill:none;stroke:#FFFD7D;stroke-width:0.8823;stroke-linecap:square;}
	.st6{fill:none;stroke:#FFFD7D;stroke-width:1.0381;stroke-linecap:square;}
	.st7{fill:none;stroke:#FFFD7D;stroke-width:1.2039;stroke-linecap:square;}
	.st8{fill:none;stroke:#FFFD7D;stroke-width:0.934;stroke-linecap:square;}
	.st9{fill:none;stroke:#FFFD7D;stroke-width:1.0528;}
	.st10{fill:#FFFD7D;}
	.st11{fill:none;stroke:#FFFD7D;stroke-width:1.5;stroke-miterlimit:10;}
</style>
<sodipodi:namedview  bordercolor="#666666" borderopacity="1.0" id="base" inkscape:current-layer="layer3" inkscape:cx="144.56648" inkscape:cy="807.05895" inkscape:document-units="px" inkscape:pageopacity="0.0" inkscape:pageshadow="2" inkscape:window-height="837" inkscape:window-maximized="1" inkscape:window-width="1440" inkscape:window-x="-8" inkscape:window-y="-8" inkscape:zoom="4" pagecolor="#ffffff" showgrid="false">
	</sodipodi:namedview>
<g id="layer3" inkscape:groupmode="layer" inkscape:label="Layer 2" class="st0">
	
		<image style="display:inline;overflow:visible;enable-background:new    ;" width="843" height="357" id="image4213" xlink:href="BB36ECF3.png"  transform="matrix(0.6705 0 0 0.6705 10.1052 400.7373)">
	</image>
</g>
<g id="layer1" inkscape:groupmode="layer" inkscape:label="Layer 1">
	<g>
		<path id="path4176" inkscape:connector-curvature="0" sodipodi:nodetypes="czzc" class="st1" d="M69.7,162.7c0,0,2,1.3,1.7,4.6
			s5-3.8,5.2-4.6S69.7,162.7,69.7,162.7L69.7,162.7z"/>
		<path id="path4176-5" inkscape:connector-curvature="0" sodipodi:nodetypes="czsssssc" class="st1" d="M68.3,162.9
			c0,0,2,1.3,1.7,4.6s-4,4.1-6.7,3.5c-1.8-0.4-4.1-3.8-1.7-4.9c1.2-0.5,2.6,1.4,3,0.1c0.4-1.3-3.1-2.2-6.9-1.2
			c-0.7,0.2-1.2-2.1,0.7-2.5C61.1,161.9,68.2,162.9,68.3,162.9z"/>
	</g>
	<circle id="path4303" class="st2" cx="37.9" cy="167.4" r="19.5"/>
	<path id="path4307" inkscape:connector-curvature="0" sodipodi:nodetypes="cc" class="st3" d="M29.7,177.4c0,0,8.6-4.3,15.9,0.4"/>
	<path id="path4307-8" inkscape:connector-curvature="0" sodipodi:nodetypes="cc" class="st3" d="M28,175.9c0,0,11-5.8,19.5,0.8"/>
	<path id="path4324" inkscape:connector-curvature="0" sodipodi:nodetypes="csc" class="st3" d="M47.3,176.3c0,0,3.6-6.6,3.9-10.1
		c0.2-3.1-4.8-5.2-6.7-2.6"/>
	<path id="path4326" inkscape:connector-curvature="0" sodipodi:nodetypes="csc" class="st4" d="M37.5,161c2.1-1.7,6.5-0.9,6.9,2.3
		c0.4,2.9,0.4,6.4-1.3,11"/>
	<polygon id="rect4330" class="st5" points="37.4,155.7 39.7,158.4 37.4,161.1 35.1,158.4 	"/>
	<polygon id="rect4330-7" class="st6" points="37.6,166.7 40.2,169.9 37.7,173.1 35.1,169.9 	"/>
	<circle id="path4347" class="st7" cx="37.4" cy="164" r="2.6"/>
	<path id="path4326-2" inkscape:connector-curvature="0" sodipodi:nodetypes="csc" class="st8" d="M37,160.9
		c-1.9-1.6-5.8-0.9-6.1,2.2c-0.3,2.8-0.1,6.4,1.4,10.8"/>
	<path id="path4324-1" inkscape:connector-curvature="0" sodipodi:nodetypes="csc" class="st3" d="M28.1,175.6c0,0-3.6-6.6-3.9-10.1
		c-0.2-3.1,4.8-5.2,6.6-2.6"/>
	<path id="path4383" inkscape:connector-curvature="0" class="st9" d="M37.5,156v-4.6"/>
	<path id="path4383-8" inkscape:connector-curvature="0" class="st9" d="M35.3,153.3h4.6"/>
	<rect id="rect3347-6" x="24.2" y="182.1" class="st1" width="2.1" height="155.3"/>
	<rect id="rect3347-0-6" x="28.5" y="185.3" class="st1" width="2.2" height="148"/>
	<path id="path4462" inkscape:connector-curvature="0" sodipodi:nodetypes="cscssc" class="st1" d="M44.5,186.6
		c-9.4,3.9-11.3,6.9-14.2,12.1c-2.5,4.3-0.6-7.9-0.6-7.9s0.2-0.3,0.6-0.6c2.1-1.7,2.8-2.9,2.7-3.7C32.9,185.4,44.5,186.6,44.5,186.6
		z"/>
	<path id="path4464" inkscape:connector-curvature="0" sodipodi:nodetypes="ssszcs" class="st1" d="M29.8,208.2
		c1.5,0.5,8.7,1.3,9.5-3.4c0.6-4.5-3.1-6.9-7.3-3.7c-1.6,1.4,2.4,0.4,2.2,3c-0.2,2.3-4,0.9-4,0.9S29.4,208.1,29.8,208.2z"/>
	<path class="st10" d="M30.5,216.9c-1.4,0.4-1.1-7.3,0.3-6.9c3.9,1.2,6-1.3,6,0.2C36.7,211.8,34.7,215.8,30.5,216.9z"/>
</g>
<path class="st10" d="M30.5,301.1c-1.4-0.4-1.1,7.3,0.3,6.9c3.9-1.2,6,1.3,6-0.2C36.7,306.2,34.7,302.2,30.5,301.1z"/>
<path id="path4464_1_" inkscape:connector-curvature="0" sodipodi:nodetypes="ssszcs" class="st1" d="M29.8,310.1
	c1.5-0.5,8.7-1.3,9.5,3.4c0.6,4.5-3.1,6.9-7.3,3.7c-1.6-1.4,2.4-0.4,2.2-3c-0.2-2.3-4-0.9-4-0.9S29.4,310.2,29.8,310.1z"/>
<circle id="path4303_1_" class="st2" cx="37.9" cy="351.6" r="19.5"/>
<path id="path4462_1_" inkscape:connector-curvature="0" sodipodi:nodetypes="cscssc" class="st1" d="M44.7,332.5
	c-9.4-3.9-11.3-6.9-14.2-12.1c-2.5-4.3-0.6,7.9-0.6,7.9s0.2,0.3,0.6,0.6c2.1,1.7,2.8,2.9,2.7,3.7C33.1,333.7,44.7,332.5,44.7,332.5z
	"/>
<path class="st10" d="M46,358.6l-0.6,0.6c-0.4,0.4-1,0.4-1.4,0l-11.4-11.4c-0.4-0.4-0.4-1,0-1.4l0.6-0.6c0.4-0.4,1-0.4,1.4,0
	L46,357.2C46.4,357.6,46.4,358.2,46,358.6z"/>
<path class="st10" d="M42.5,345.9l1.2,1.1c0.2,0.2,0.3,0.6,0,0.9l-4.9,5.1c-0.2,0.2-0.6,0.3-0.9,0l-1.2-1.1c-0.2-0.2-0.3-0.6,0-0.9
	l4.9-5.1C41.8,345.7,42.2,345.7,42.5,345.9z"/>
<path class="st10" d="M44,355.4l1.8,1.7c0,0.3,0,0.5,0,0.8l-3.2,3.4c-0.2,0.2-0.5,0.2-0.7,0c-0.6-0.7,0-0.8,0-1.3
	c0-0.3-0.2-0.5-0.5-0.5c-0.6,0-0.6,0.9-1.4,0c0,0-0.2-0.1-0.2-0.4c0-0.1,0-0.3,0.1-0.4l3.2-3.4C43.5,355.4,43.7,355.4,44,355.4z"/>
<path class="st10" d="M31.9,355.8l-1.8,1.7c0,0.3,0,0.5,0,0.8l3,3.1c0.2,0.2,0.5,0.2,0.7,0c0.6-0.7,0-0.8,0-1.3
	c0-0.2,0.2-0.5,0.5-0.5c0.5,0,0.5,0.9,1.4,0c0,0,0.2-0.1,0.2-0.3c0-0.1,0-0.2-0.1-0.3l-3-3.1C32.4,355.8,32.2,355.8,31.9,355.8z"/>
<path class="st10" d="M36.6,353.8l-0.8-0.8c-0.3-0.3-0.9-0.3-1.2,0l-4.6,4.6c-0.3,0.3-0.3,0.9,0,1.2l0.8,0.8c0.3,0.3,0.9,0.3,1.2,0
	l4.6-4.6C36.9,354.7,36.9,354.2,36.6,353.8z"/>
<circle class="st11" cx="43.1" cy="343.2" r="2.6"/>
<circle class="st11" cx="46.5" cy="346.4" r="2.6"/>
<circle class="st11" cx="33.6" cy="343.2" r="2.6"/>
<circle class="st11" cx="30.1" cy="346.4" r="2.6"/>
<g>
	<path id="path4176_1_" inkscape:connector-curvature="0" sodipodi:nodetypes="czzc" class="st1" d="M69.7,356.2c0,0,7.1,0.8,6.9,0
		c-0.2-0.8-5.5-7.9-5.2-4.6C71.7,354.9,69.7,356.2,69.7,356.2L69.7,356.2z"/>
	<path id="path4176-5_1_" inkscape:connector-curvature="0" sodipodi:nodetypes="czsssssc" class="st1" d="M58.4,356.4
		c-1.9-0.4-1.4-2.7-0.7-2.5c3.8,1,7.3,0.1,6.9-1.2c-0.4-1.3-1.8,0.6-3,0.1c-2.4-1.1-0.1-4.5,1.7-4.9c2.7-0.6,6.4,0.2,6.7,3.5
		c0.3,3.3-1.7,4.6-1.7,4.6C68.2,356,61.1,357,58.4,356.4z"/>
</g>
<g id="layer1_1_" inkscape:groupmode="layer" inkscape:label="Layer 1">
	<g>
		<rect id="rect3347_3_" x="54.5" y="156" class="st1" width="151.7" height="2.1"/>
		<rect id="rect3347-0_3_" x="56.9" y="161.1" class="st1" width="147.6" height="2.2"/>
		<path id="path4176_3_" inkscape:connector-curvature="0" sodipodi:nodetypes="czzc" class="st1" d="M191.2,162.7
			c0,0-7.1-0.8-6.9,0s5.5,7.9,5.2,4.6S191.2,162.7,191.2,162.7L191.2,162.7z"/>
		<path id="path4176-5_3_" inkscape:connector-curvature="0" sodipodi:nodetypes="czsssssc" class="st1" d="M202.5,162.5
			c1.9,0.4,1.4,2.7,0.7,2.5c-3.8-1-7.3-0.1-6.9,1.2c0.4,1.3,1.8-0.6,3-0.1c2.4,1.1,0.1,4.5-1.7,4.9c-2.7,0.6-6.4-0.2-6.7-3.5
			s1.7-4.6,1.7-4.6C192.7,162.9,199.8,161.9,202.5,162.5z"/>
	</g>
	<circle id="path4303_3_" class="st2" cx="223" cy="167.4" r="19.5"/>
	<rect id="rect3347-6_1_" x="234.6" y="182.1" class="st1" width="2.1" height="155.3"/>
	<rect id="rect3347-0-6_1_" x="230.2" y="185.3" class="st1" width="2.2" height="148"/>
	<path id="path4462_3_" inkscape:connector-curvature="0" sodipodi:nodetypes="cscssc" class="st1" d="M227.9,186.5
		c-0.1,0.8,0.6,2,2.7,3.7c0.4,0.3,0.6,0.6,0.6,0.6s1.9,12.2-0.6,7.9c-2.9-5.2-4.8-8.2-14.2-12.1C216.4,186.6,228,185.4,227.9,186.5z
		"/>
	<path id="path4464_3_" inkscape:connector-curvature="0" sodipodi:nodetypes="ssszcs" class="st1" d="M230.7,205c0,0-3.8,1.4-4-0.9
		c-0.2-2.6,3.8-1.6,2.2-3c-4.2-3.2-7.9-0.8-7.3,3.7c0.8,4.7,8,3.9,9.5,3.4C231.5,208.1,230.7,205,230.7,205z"/>
	<path class="st10" d="M224.1,210.2c0-1.5,2.1,1,6-0.2c1.4-0.4,1.7,7.3,0.3,6.9C226.2,215.8,224.2,211.8,224.1,210.2z"/>
</g>
<path class="st10" d="M224.1,307.8c0,1.5,2.1-1,6,0.2c1.4,0.4,1.7-7.3,0.3-6.9C226.2,302.2,224.2,306.2,224.1,307.8z"/>
<path id="path4464_2_" inkscape:connector-curvature="0" sodipodi:nodetypes="ssszcs" class="st1" d="M230.7,313.3
	c0,0-3.8-1.4-4,0.9c-0.2,2.6,3.8,1.6,2.2,3c-4.2,3.2-7.9,0.8-7.3-3.7c0.8-4.7,8-3.9,9.5-3.4C231.5,310.2,230.7,313.3,230.7,313.3z"
	/>
<circle id="path4303_2_" class="st2" cx="223" cy="351.6" r="19.5"/>
<path id="path4462_2_" inkscape:connector-curvature="0" sodipodi:nodetypes="cscssc" class="st1" d="M227.7,332.6
	c-0.1-0.8,0.6-2,2.7-3.7c0.4-0.3,0.6-0.6,0.6-0.6s1.9-12.2-0.6-7.9c-2.9,5.2-4.8,8.2-14.2,12.1C216.2,332.5,227.8,333.7,227.7,332.6
	z"/>
<path class="st10" d="M214.9,357.2l11.4-11.4c0.4-0.4,1-0.4,1.4,0l0.6,0.6c0.4,0.4,0.4,1,0,1.4l-11.4,11.4c-0.4,0.4-1,0.4-1.4,0
	l-0.6-0.6C214.5,358.2,214.5,357.6,214.9,357.2z"/>
<path class="st10" d="M219.3,345.9l4.9,5.1c0.3,0.3,0.2,0.7,0,0.9L223,353c-0.3,0.3-0.7,0.2-0.9,0l-4.9-5.1c-0.3-0.3-0.2-0.7,0-0.9
	l1.2-1.1C218.7,345.7,219.1,345.7,219.3,345.9z"/>
<path class="st10" d="M217.8,355.3l3.2,3.4c0.1,0.1,0.1,0.3,0.1,0.4c0,0.3-0.2,0.4-0.2,0.4c-0.8,0.9-0.8,0-1.4,0
	c-0.3,0-0.5,0.2-0.5,0.5c0,0.5,0.6,0.6,0,1.3c-0.2,0.2-0.5,0.2-0.7,0l-3.2-3.4c0-0.3,0-0.5,0-0.8l1.8-1.7
	C217.2,355.4,217.4,355.4,217.8,355.3z"/>
<path class="st10" d="M228.1,355.9l-3,3.1c-0.1,0.1-0.1,0.2-0.1,0.3c0,0.2,0.2,0.3,0.2,0.3c0.9,0.9,0.9,0,1.4,0
	c0.3,0,0.5,0.3,0.5,0.5c0,0.5-0.6,0.6,0,1.3c0.2,0.2,0.5,0.2,0.7,0l3-3.1c0-0.3,0-0.5,0-0.8l-1.8-1.7
	C228.7,355.8,228.5,355.8,228.1,355.9z"/>
<path class="st10" d="M224.3,355l4.6,4.6c0.3,0.3,0.9,0.3,1.2,0l0.8-0.8c0.3-0.3,0.3-0.9,0-1.2l-4.6-4.6c-0.3-0.3-0.9-0.3-1.2,0
	l-0.8,0.8C224,354.2,224,354.7,224.3,355z"/>
<circle class="st11" cx="217.8" cy="343.2" r="2.6"/>
<circle class="st11" cx="214.4" cy="346.3" r="2.6"/>
<circle class="st11" cx="227.4" cy="343.2" r="2.6"/>
<circle class="st11" cx="230.8" cy="346.3" r="2.6"/>
<g>
	<rect id="rect3347_2_" x="54.3" y="360.8" class="st1" width="152.4" height="2.1"/>
	<rect id="rect3347-0_2_" x="56.4" y="355.6" class="st1" width="147.5" height="2.2"/>
	<path id="path4176_2_" inkscape:connector-curvature="0" sodipodi:nodetypes="czzc" class="st1" d="M191.2,356.2c0,0-2-1.3-1.7-4.6
		c0.3-3.3-5,3.8-5.2,4.6C184.1,357,191.2,356.2,191.2,356.2L191.2,356.2z"/>
	<path id="path4176-5_2_" inkscape:connector-curvature="0" sodipodi:nodetypes="czsssssc" class="st1" d="M192.6,356
		c0,0-2-1.3-1.7-4.6c0.3-3.3,4-4.1,6.7-3.5c1.8,0.4,4.1,3.8,1.7,4.9c-1.2,0.5-2.6-1.4-3-0.1c-0.4,1.3,3.1,2.2,6.9,1.2
		c0.7-0.2,1.2,2.1-0.7,2.5C199.8,357,192.7,356,192.6,356z"/>
</g>
<path id="path4307_1_" inkscape:connector-curvature="0" sodipodi:nodetypes="cc" class="st3" d="M216.1,178.1c0,0,8.6-4.3,15.9,0.4
	"/>
<path id="path4307-8_1_" inkscape:connector-curvature="0" sodipodi:nodetypes="cc" class="st3" d="M214.4,176.6
	c0,0,11-5.8,19.5,0.8"/>
<path id="path4324_1_" inkscape:connector-curvature="0" sodipodi:nodetypes="csc" class="st3" d="M233.7,177c0,0,3.6-6.6,3.9-10.1
	c0.2-3.1-4.8-5.2-6.7-2.6"/>
<path id="path4326_1_" inkscape:connector-curvature="0" sodipodi:nodetypes="csc" class="st4" d="M223.9,161.7
	c2.1-1.7,6.5-0.9,6.9,2.3c0.4,2.9,0.4,6.4-1.3,11"/>
<polygon id="rect4330_1_" class="st5" points="223.8,156.4 226.1,159.1 223.8,161.8 221.5,159.1 "/>
<polygon id="rect4330-7_1_" class="st6" points="224,167.4 226.6,170.6 224.1,173.8 221.5,170.6 "/>
<circle id="path4347_1_" class="st7" cx="223.8" cy="164.7" r="2.6"/>
<path id="path4326-2_1_" inkscape:connector-curvature="0" sodipodi:nodetypes="csc" class="st8" d="M223.4,161.6
	c-1.9-1.6-5.8-0.9-6.1,2.2c-0.3,2.8-0.1,6.4,1.4,10.8"/>
<path id="path4324-1_1_" inkscape:connector-curvature="0" sodipodi:nodetypes="csc" class="st3" d="M214.5,176.3
	c0,0-3.6-6.6-3.9-10.1c-0.2-3.1,4.8-5.2,6.6-2.6"/>
<path id="path4383_1_" inkscape:connector-curvature="0" class="st9" d="M223.9,156.7v-4.6"/>
<path id="path4383-8_1_" inkscape:connector-curvature="0" class="st9" d="M221.7,154h4.6"/>
</svg>
