<svg id="Слой_1" data-name="Слой 1" xmlns="http://www.w3.org/2000/svg" viewBox="0 0 559.56 350.27"><defs><style>.cls-1{fill:#f3efa8;}.cls-2{fill:#fff;}</style></defs><title>icov2</title><path class="cls-1" d="M97.18,249.53H29.51l-17,17V404.3A13.54,13.54,0,0,0,26,417.84h74.61a13.54,13.54,0,0,0,13.54-13.54V266.54ZM91,369.65q-4.38,3.72-12.2,6a54.51,54.51,0,0,1-15.2,2.27q-16.57,0-26.17-11.24t-9.6-29.88q0-18.6,10.53-30.16t28.41-11.57q12.52,0,20.4,6.94l-4.54,9q-8.26-6.12-16.19-6.13-12.57,0-19.85,8.86t-7.27,23.46q0,13.89,7.13,22.37t19.44,8.48q8.76,0,14.17-5.25V344.06H69v-9.3H91Z" transform="translate(-12.5 -249.53)"/><path class="cls-1" d="M144,249.53l-17,17V404.3a13.54,13.54,0,0,0,13.54,13.54h74.61a13.54,13.54,0,0,0,13.54-13.54V266.54l-17-17Zm51.64,127-21.39-34.39q-3.66,0-11.59-.55v34.94H151.7V296.43q.6,0,8.51-.41c5.26-.28,9.1-.41,11.51-.41q28.88,0,28.87,23a21.73,21.73,0,0,1-4.65,13.59,19.33,19.33,0,0,1-11,7.51l23.24,36.86Z" transform="translate(-12.5 -249.53)"/><path class="cls-1" d="M189.11,318.36q0-6.74-4.81-9.68t-15.21-3c-1.09,0-3.24.19-6.45.55v26a54.81,54.81,0,0,0,7.66.55q9.84,0,14.32-3.17T189.11,318.36Z" transform="translate(-12.5 -249.53)"/><polygon class="cls-1" points="266.53 102.08 290.32 102.08 278.94 66.8 266.53 102.08"/><path class="cls-1" d="M258.44,249.53l-17,17V404.3A13.54,13.54,0,0,0,255,417.84h74.6a13.55,13.55,0,0,0,13.55-13.54V266.54l-17-17Zm53,127-5.52-16.89H276.13l-5.9,16.89H258l32.54-81.21h2.9l30.18,81.21Z" transform="translate(-12.5 -249.53)"/><path class="cls-1" d="M440.59,249.53H372.91l-17,17V404.3a13.55,13.55,0,0,0,13.55,13.54h74.6a13.54,13.54,0,0,0,13.54-13.54V266.54Zm-4.75,128.11h-3.28l-41.4-58.57v57.47H380.77V296.43h4.37l40.31,55.4v-55.4h10.39Z" transform="translate(-12.5 -249.53)"/><path class="cls-1" d="M514.66,305.72c-1,0-3.74.19-8.15.55v59.88a62.3,62.3,0,0,0,9.08.55q11.49,0,18-8.61t6.56-23.93Q540.2,305.72,514.66,305.72Z" transform="translate(-12.5 -249.53)"/><path class="cls-1" d="M555.05,249.53H487.38l-17,17V404.3a13.54,13.54,0,0,0,13.54,13.54h74.61a13.54,13.54,0,0,0,13.54-13.54V266.54Zm-43.34,127H495.58V296.43q15.42-.56,19.74-.55,16.78,0,26.58,10.2t9.79,27.15Q551.69,376.55,511.71,376.54Z" transform="translate(-12.5 -249.53)"/><path class="cls-1" d="M97.18,431.49H29.51l-17,17V586.26A13.54,13.54,0,0,0,26,599.8h74.61a13.54,13.54,0,0,0,13.54-13.54V448.49ZM91,552.35H80V513.63H45v38.72H34.09V472.24H45v32.1H80v-32.1H91Z" transform="translate(-12.5 -249.53)"/><path class="cls-1" d="M211.65,431.49H144l-17,17V586.26a13.54,13.54,0,0,0,13.54,13.54h74.61a13.54,13.54,0,0,0,13.54-13.54V448.49Zm-6.52,111q-8.91,11.18-25.54,11.18-15.15,0-23.7-11.81t-8.56-30.3q0-17.39,8.72-29.09t23.54-11.71q16.68,0,25.57,10.78t8.89,30Q214.05,531.35,205.13,542.54Z" transform="translate(-12.5 -249.53)"/><path class="cls-1" d="M179.59,480.66q-10.17,0-15.47,8.31t-5.31,22.64q0,13.78,5.44,23t15.34,9.25q11.22,0,17.09-8.48t5.88-23.79Q202.56,480.67,179.59,480.66Z" transform="translate(-12.5 -249.53)"/><path class="cls-1" d="M326.12,431.49H258.44l-17,17V586.26A13.54,13.54,0,0,0,255,599.8h74.6a13.55,13.55,0,0,0,13.55-13.54V448.49Zm-4.32,50.59H295.17v70.27H284.23V482.08H258.74v-9.84H321.8Z" transform="translate(-12.5 -249.53)"/><path class="cls-1" d="M440.59,431.49H372.91l-17,17V586.26a13.55,13.55,0,0,0,13.55,13.54h74.6a13.54,13.54,0,0,0,13.54-13.54V448.49Zm-17.67,50.59H386v22.26h26.47v9.29H386v28.88h36.31v9.84H375.07V472.24h47.85Z" transform="translate(-12.5 -249.53)"/><path class="cls-1" d="M555.05,431.49H487.38l-17,17V586.26a13.54,13.54,0,0,0,13.54,13.54h74.61a13.54,13.54,0,0,0,13.54-13.54V448.49ZM542.72,552.35H495.58V472.24h10.93v70.27h36.21Z" transform="translate(-12.5 -249.53)"/><ellipse class="cls-2" cx="50.84" cy="12.27" rx="10.06" ry="12.27"/><ellipse class="cls-2" cx="165.31" cy="12.27" rx="10.06" ry="12.27"/><ellipse class="cls-2" cx="277.77" cy="12.27" rx="10.06" ry="12.27"/><ellipse class="cls-2" cx="394.25" cy="12.27" rx="10.06" ry="12.27"/><ellipse class="cls-2" cx="510.86" cy="12.27" rx="10.06" ry="12.27"/><ellipse class="cls-2" cx="510.86" cy="194.23" rx="10.06" ry="12.27"/><ellipse class="cls-2" cx="395.8" cy="194.23" rx="10.06" ry="12.27"/><ellipse class="cls-2" cx="279.78" cy="194.23" rx="10.06" ry="12.27"/><ellipse class="cls-2" cx="167.42" cy="194.23" rx="10.06" ry="12.27"/><ellipse class="cls-2" cx="50.84" cy="194.23" rx="10.06" ry="12.27"/></svg>