<?xml version="1.0" encoding="utf-8"?>
<!-- Generator: Adobe Illustrator 23.0.2, SVG Export Plug-In . SVG Version: 6.00 Build 0)  -->
<svg version="1.1" id="svg2" xmlns="http://www.w3.org/2000/svg" xmlns:xlink="http://www.w3.org/1999/xlink" x="0px" y="0px"
	 viewBox="0 0 226.6 225.7" style="enable-background:new 0 0 226.6 225.7;" xml:space="preserve">
<style type="text/css">
	.st0{fill-rule:evenodd;clip-rule:evenodd;fill:#FFFD7D;}
	.st1{fill:none;stroke:#FFFD7D;stroke-width:2.5;}
	.st2{fill:none;stroke:#FFFD7D;stroke-linecap:round;}
	.st3{fill:none;stroke:#FFFD7D;stroke-linecap:square;}
	.st4{fill:none;stroke:#FFFD7D;stroke-width:0.88;stroke-linecap:square;}
	.st5{fill:none;stroke:#FFFD7D;stroke-width:1.04;stroke-linecap:square;}
	.st6{fill:none;stroke:#FFFD7D;stroke-width:1.2;stroke-linecap:square;}
	.st7{fill:none;stroke:#FFFD7D;stroke-width:0.93;stroke-linecap:square;}
	.st8{fill:none;stroke:#FFFD7D;stroke-width:1.05;}
	.st9{fill:#FFFD7D;}
	.st10{fill:none;stroke:#FFFD7D;stroke-width:1.5;stroke-miterlimit:10;}
</style>
<title>drawingv2test</title>
<g id="layer1">
	<path id="path4176" class="st0" d="M52.5,16c0,0,2,1.3,1.7,4.6s5-3.8,5.2-4.6C59.6,15.2,52.5,16,52.5,16z"/>
	<path id="path4176-5" class="st0" d="M51.2,16.2c0,0,2,1.3,1.7,4.6s-4,4.1-6.7,3.5c-1.8-0.4-4.1-3.8-1.7-4.9c1.2-0.5,2.6,1.4,3,0.1
		s-3.1-2.2-6.9-1.2c-0.7,0.2-1.2-2.1,0.7-2.5C43.9,15.2,51,16.2,51.2,16.2z"/>
	<circle id="path4303" class="st1" cx="20.8" cy="20.7" r="19.5"/>
	<path id="path4307" class="st2" d="M12.6,30.7c0,0,8.6-4.3,15.9,0.4"/>
	<path id="path4307-8" class="st2" d="M10.9,29.2c0,0,11-5.8,19.5,0.8"/>
	<path id="path4324" class="st2" d="M30.1,29.7c0,0,3.6-6.6,3.9-10.1c0.2-3.1-4.8-5.2-6.7-2.6"/>
	<path id="path4326" class="st3" d="M20.4,14.3c2.1-1.7,6.5-0.9,6.9,2.3c0.5,3.7,0.1,7.5-1.3,11"/>
	<polygon id="rect4330" class="st4" points="20.3,9 22.5,11.7 20.3,14.4 18,11.7 	"/>
	<polygon id="rect4330-7" class="st5" points="20.5,20 23,23.2 20.5,26.4 18,23.2 	"/>
	<circle id="path4347" class="st6" cx="20.3" cy="17.3" r="2.6"/>
	<path id="path4326-2" class="st7" d="M19.9,14.2c-1.9-1.6-5.8-0.9-6.1,2.2c-0.3,3.7,0.1,7.3,1.4,10.8"/>
	<path id="path4324-1" class="st2" d="M11,29c0,0-3.6-6.6-3.9-10.1c-0.2-3.1,4.8-5.2,6.6-2.6"/>
	<path id="path4383" class="st8" d="M20.4,9.3V4.7"/>
	<path id="path4383-8" class="st8" d="M18.1,6.7h4.6"/>
	<rect id="rect3347-6" x="7.1" y="35.4" class="st9" width="2.1" height="155.3"/>
	<rect id="rect3347-0-6" x="11.4" y="38.6" class="st9" width="2.2" height="148"/>
	<path id="path4462" class="st0" d="M27.4,40c-9.4,3.9-11.3,6.9-14.2,12.1c-2.5,4.3-0.6-7.9-0.6-7.9c0.2-0.2,0.4-0.4,0.6-0.6
		c2.1-1.7,2.8-2.9,2.7-3.7C15.8,38.7,27.4,40,27.4,40z"/>
	<path id="path4464" class="st0" d="M12.6,61.5c1.5,0.5,8.7,1.3,9.5-3.4c0.6-4.5-3.1-6.9-7.3-3.7c-1.6,1.4,2.4,0.4,2.2,3
		c-0.2,2.3-4,0.9-4,0.9S12.3,61.5,12.6,61.5z"/>
	<path class="st9" d="M13.4,70.2c-1.4,0.4-1.1-7.3,0.3-6.9c3.9,1.2,6-1.3,6,0.2C19,66.8,16.5,69.4,13.4,70.2z"/>
</g>
<path class="st9" d="M13.4,154.5c-1.4-0.4-1.1,7.3,0.3,6.9c3.9-1.2,6,1.3,6-0.2C19,157.9,16.5,155.3,13.4,154.5z"/>
<path id="path4464-2" class="st0" d="M12.6,163.5c1.5-0.5,8.7-1.3,9.5,3.4c0.6,4.5-3.1,6.9-7.3,3.7c-1.6-1.4,2.4-0.4,2.2-3
	c-0.2-2.3-4-0.9-4-0.9S12.3,163.6,12.6,163.5z"/>
<circle id="path4303-2" class="st1" cx="20.8" cy="204.9" r="19.5"/>
<path id="path4462-2" class="st0" d="M27.6,185.9c-9.4-3.9-11.3-6.9-14.2-12.1c-2.5-4.3-0.6,7.9-0.6,7.9c0.2,0.2,0.4,0.4,0.6,0.6
	c2.1,1.7,2.8,2.9,2.7,3.7C15.9,187.1,27.6,185.9,27.6,185.9z"/>
<path class="st9" d="M28.9,212l-0.6,0.6c-0.4,0.4-1,0.4-1.4,0l-11.4-11.4c-0.4-0.4-0.4-1,0-1.4l0.6-0.6c0.4-0.4,1-0.4,1.4,0
	l11.4,11.4C29.2,210.9,29.2,211.6,28.9,212z"/>
<path class="st9" d="M25.4,199.3l1.2,1.1c0.2,0.2,0.3,0.6,0,0.9c0,0,0,0,0,0l-4.9,5.1c-0.2,0.2-0.6,0.3-0.9,0c0,0,0,0,0,0l-1.2-1.1
	c-0.2-0.2-0.3-0.6,0-0.9c0,0,0,0,0,0l4.9-5.1C24.7,199,25.1,199,25.4,199.3z"/>
<path class="st9" d="M26.9,208.8l1.8,1.7v0.8l-3.2,3.4c-0.2,0.2-0.5,0.2-0.7,0c0,0,0,0,0,0c-0.6-0.7,0-0.8,0-1.3
	c0-0.3-0.2-0.5-0.4-0.5c0,0,0,0-0.1,0c-0.6,0-0.6,0.9-1.4,0c-0.1-0.1-0.2-0.2-0.2-0.4c0-0.1,0-0.3,0.1-0.4l3.2-3.4
	C26.2,208.7,26.5,208.8,26.9,208.8z"/>
<path class="st9" d="M14.8,209.1l-1.8,1.7v0.8l3,3.1c0.2,0.2,0.5,0.2,0.7,0c0,0,0,0,0,0c0.6-0.7,0-0.8,0-1.3c0-0.3,0.2-0.5,0.5-0.5
	c0.5,0,0.5,0.9,1.4,0c0.2-0.1,0.3-0.3,0.1-0.5c0,0,0,0,0-0.1l-3-3.1C15.4,209.2,15.1,209.1,14.8,209.1z"/>
<path class="st9" d="M19.4,207.1l-0.8-0.8c-0.3-0.3-0.9-0.3-1.2,0l-4.6,4.6c-0.3,0.3-0.3,0.9,0,1.2l0.8,0.8c0.3,0.3,0.9,0.3,1.2,0
	l4.6-4.6C19.8,208,19.8,207.5,19.4,207.1z"/>
<circle class="st10" cx="25.9" cy="196.5" r="2.6"/>
<circle class="st10" cx="29.4" cy="199.7" r="2.6"/>
<circle class="st10" cx="16.4" cy="196.5" r="2.6"/>
<circle class="st10" cx="12.9" cy="199.7" r="2.6"/>
<path id="path4176-2" class="st0" d="M52.5,209.5c0,0,7.1,0.8,6.9,0s-5.5-7.9-5.2-4.6S52.6,209.5,52.5,209.5z"/>
<path id="path4176-5-2" class="st0" d="M41.3,209.7c-1.9-0.4-1.4-2.7-0.7-2.5c3.8,1,7.3,0.1,6.9-1.2s-1.8,0.6-3,0.1
	c-2.4-1.1-0.1-4.5,1.7-4.9c2.7-0.6,6.4,0.2,6.7,3.5s-1.7,4.6-1.7,4.6S43.9,210.4,41.3,209.7z"/>
<g id="layer1-2">
	<rect id="rect3347" x="37.3" y="9.3" class="st9" width="151.7" height="2.1"/>
	<rect id="rect3347-0" x="39.7" y="14.4" class="st9" width="147.6" height="2.2"/>
	<path id="path4176-3" class="st0" d="M174,16c0,0-7.1-0.8-6.9,0c0.2,0.8,5.5,7.9,5.2,4.6S174,16,174,16z"/>
	<path id="path4176-5-3" class="st0" d="M185.3,15.8c1.9,0.4,1.4,2.7,0.7,2.5c-3.8-1-7.3-0.1-6.9,1.2s1.8-0.6,3-0.1
		c2.4,1.1,0.1,4.5-1.7,4.9c-2.7,0.6-6.4-0.2-6.7-3.5s1.7-4.6,1.7-4.6S182.6,15.2,185.3,15.8z"/>
	<circle id="path4303-3" class="st1" cx="205.8" cy="20.7" r="19.5"/>
	<path id="path4307-2" class="st2" d="M198.1,31.2c7.3-4.7,15.9-0.4,15.9-0.4"/>
	<path id="path4307-8-2" class="st2" d="M196.2,30c8.5-6.6,19.5-0.8,19.5-0.8"/>
	<path id="path4324-2" class="st2" d="M199.2,17c-1.9-2.6-6.9-0.5-6.7,2.6c0.3,3.5,3.9,10.1,3.9,10.1"/>
	<path id="path4326-2-2" class="st3" d="M200.6,27.7c-1.4-3.5-1.8-7.3-1.3-11c0.4-3.2,4.8-4,6.9-2.3"/>
	<polygon id="rect4330-2" class="st4" points="208.6,11.7 206.3,14.4 204,11.7 206.3,9 	"/>
	<polygon id="rect4330-7-2" class="st5" points="208.6,23.2 206,26.4 203.5,23.2 206.1,20 	"/>
	<circle id="path4347-2" class="st6" cx="206.3" cy="17.3" r="2.6"/>
	<path id="path4326-2-3" class="st7" d="M211.4,27.2c1.3-3.5,1.7-7.1,1.4-10.8c-0.3-3.1-4.2-3.8-6.1-2.2"/>
	<path id="path4324-1-2" class="st2" d="M212.9,16.2c1.8-2.6,6.8-0.5,6.6,2.6c-0.3,3.5-3.9,10.1-3.9,10.1"/>
	<path id="path4383-2" class="st8" d="M206.2,4.7v4.6"/>
	<path id="path4383-8-2" class="st8" d="M203.9,6.7h4.6"/>
	<rect id="rect3347-6-2" x="217.4" y="35.4" class="st9" width="2.1" height="155.3"/>
	<rect id="rect3347-0-6-2" x="213" y="38.6" class="st9" width="2.2" height="148"/>
	<path id="path4462-3" class="st0" d="M210.7,39.8c-0.1,0.8,0.6,2,2.7,3.7c0.2,0.2,0.4,0.4,0.6,0.6c0,0,1.9,12.2-0.6,7.9
		c-2.9-5.2-4.8-8.2-14.2-12.1C199.2,40,210.9,38.7,210.7,39.8z"/>
	<path id="path4464-3" class="st0" d="M213.5,58.3c0,0-3.8,1.4-4-0.9c-0.2-2.6,3.8-1.6,2.2-3c-4.2-3.2-7.9-0.8-7.3,3.7
		c0.8,4.7,8,3.9,9.5,3.4C214.3,61.5,213.5,58.3,213.5,58.3z"/>
	<path class="st9" d="M206.9,63.5c0-1.5,2.1,1,6-0.2c1.4-0.4,1.7,7.3,0.3,6.9C210,69.4,207.6,66.8,206.9,63.5z"/>
</g>
<path class="st9" d="M207,161.1c0,1.5,2.1-1,6,0.2c1.4,0.4,1.7-7.3,0.3-6.9C210.1,155.3,207.6,157.9,207,161.1z"/>
<path id="path4464-4" class="st0" d="M213.6,166.6c0,0-3.8-1.4-4,0.9c-0.2,2.6,3.8,1.6,2.2,3c-4.2,3.2-7.9,0.8-7.3-3.7
	c0.8-4.7,8-3.9,9.5-3.4C214.4,163.6,213.6,166.6,213.6,166.6z"/>
<circle id="path4303-4" class="st1" cx="205.9" cy="204.9" r="19.5"/>
<path id="path4462-4" class="st0" d="M210.6,186c-0.1-0.8,0.6-2,2.7-3.7c0.2-0.2,0.4-0.4,0.6-0.6c0,0,1.9-12.2-0.6-7.9
	c-2.9,5.2-4.8,8.2-14.2,12.1C199.1,185.9,210.7,187.1,210.6,186z"/>
<path class="st9" d="M197.8,210.6l11.4-11.4c0.4-0.4,1-0.4,1.4,0l0.6,0.6c0.4,0.4,0.4,1,0,1.4l-11.4,11.4c-0.4,0.4-1,0.4-1.4,0
	l-0.6-0.6C197.4,211.6,197.4,210.9,197.8,210.6z"/>
<path class="st9" d="M202.2,199.3l4.9,5.1c0.2,0.2,0.3,0.6,0,0.9c0,0,0,0,0,0l-1.2,1.1c-0.2,0.2-0.6,0.3-0.9,0c0,0,0,0,0,0l-4.9-5.1
	c-0.2-0.2-0.3-0.6,0-0.9c0,0,0,0,0,0l1.2-1.1C201.5,199.1,201.9,199.1,202.2,199.3z"/>
<path class="st9" d="M200.7,208.6l3.2,3.4c0.1,0.1,0.1,0.3,0.1,0.4c0,0.2-0.1,0.3-0.2,0.4c-0.8,0.9-0.8,0-1.4,0
	c-0.3,0-0.5,0.2-0.5,0.4c0,0,0,0,0,0.1c0,0.5,0.6,0.6,0,1.3c-0.2,0.2-0.5,0.2-0.7,0c0,0,0,0,0,0l-3.2-3.4v-0.8l1.8-1.7
	C200.1,208.8,200.4,208.7,200.7,208.6z"/>
<path class="st9" d="M211,209.3l-3,3.1c-0.1,0.2-0.1,0.4,0,0.6c0,0,0,0,0.1,0c0.9,0.9,0.9,0,1.4,0c0.3,0,0.5,0.2,0.5,0.5
	c0,0.5-0.6,0.6,0,1.3c0.2,0.2,0.5,0.2,0.7,0c0,0,0,0,0,0l3-3.1v-0.8l-1.8-1.7C211.5,209.1,211.2,209.2,211,209.3z"/>
<path class="st9" d="M207.2,208.4l4.6,4.6c0.3,0.3,0.9,0.3,1.2,0l0.8-0.8c0.3-0.3,0.3-0.9,0-1.2l-4.6-4.6c-0.3-0.3-0.9-0.3-1.2,0
	l-0.8,0.8C206.8,207.5,206.8,208,207.2,208.4z"/>
<circle class="st10" cx="200.7" cy="196.5" r="2.6"/>
<circle class="st10" cx="197.2" cy="199.7" r="2.6"/>
<circle class="st10" cx="210.2" cy="196.5" r="2.6"/>
<circle class="st10" cx="213.6" cy="199.7" r="2.6"/>
<rect id="rect3347-2" x="37.2" y="214.1" class="st9" width="152.4" height="2.1"/>
<rect id="rect3347-0-2" x="39.2" y="208.9" class="st9" width="147.5" height="2.2"/>
<path id="path4176-4" class="st0" d="M174.1,209.5c0,0-2-1.3-1.7-4.6s-5,3.8-5.2,4.6S174.1,209.5,174.1,209.5z"/>
<path id="path4176-5-4" class="st0" d="M175.5,209.4c0,0-2-1.3-1.7-4.6s4-4.1,6.7-3.5c1.8,0.4,4.1,3.8,1.7,4.9
	c-1.2,0.5-2.6-1.4-3-0.1s3.1,2.2,6.9,1.2c0.7-0.2,1.2,2.1-0.7,2.5C182.7,210.4,175.6,209.4,175.5,209.4z"/>
</svg>
